<?xml version="1.0" encoding="UTF-8" standalone="no"?>
<svg
   xmlns:dc="http://purl.org/dc/elements/1.1/"
   xmlns:cc="http://creativecommons.org/ns#"
   xmlns:rdf="http://www.w3.org/1999/02/22-rdf-syntax-ns#"
   xmlns:svg="http://www.w3.org/2000/svg"
   xmlns="http://www.w3.org/2000/svg"
   xmlns:sodipodi="http://sodipodi.sourceforge.net/DTD/sodipodi-0.dtd"
   xmlns:inkscape="http://www.inkscape.org/namespaces/inkscape"
   version="1.1"
   width="8.5in"
   height="11in"
   id="svg20"
   sodipodi:docname="calacaquietriot.svg"
   inkscape:version="1.0.2 (1.0.2+r75+1)">
  <metadata
     id="metadata26">
    <rdf:RDF>
      <cc:Work
         rdf:about="">
        <dc:format>image/svg+xml</dc:format>
        <dc:type
           rdf:resource="http://purl.org/dc/dcmitype/StillImage" />
        <dc:title></dc:title>
      </cc:Work>
    </rdf:RDF>
  </metadata>
  <defs
     id="defs24" />
  <sodipodi:namedview
     pagecolor="#ffffff"
     bordercolor="#666666"
     borderopacity="1"
     objecttolerance="10"
     gridtolerance="10"
     guidetolerance="10"
     inkscape:pageopacity="0"
     inkscape:pageshadow="2"
     inkscape:window-width="1360"
     inkscape:window-height="719"
     id="namedview22"
     showgrid="false"
     units="in"
     inkscape:zoom="0.42784453"
     inkscape:cx="846.60735"
     inkscape:cy="647.46986"
     inkscape:window-x="0"
     inkscape:window-y="22"
     inkscape:window-maximized="1"
     inkscape:current-layer="svg20" />
  <path
     id="path8"
     style="fill:#000000;stroke:#1b1918;stroke-width:0.626561;stroke-linecap:butt;stroke-linejoin:miter;stroke-dasharray:none"
     d="M 379.90559,60.695037 347.72545,68.740064 277.3314,100.9202 h -32.18014 l -22.12385,18.10133 -38.21392,36.20266 -16.09006,26.14635 -2.01127,34.1914 10.05632,52.29271 24.13509,28.15763 10.0563,64.35462 54.30397,42.23644 v 8.04504 l -4.02252,18.10132 16.09008,30.16888 4.02252,-2.01126 26.14637,34.1914 30.16888,24.13509 24.13509,6.03377 52.29272,12.06758 32.18014,-2.01126 32.18014,-24.1351 28.15761,-20.1126 36.20265,-28.15762 20.11262,-30.16888 2.01126,-20.11257 6.03375,-14.07884 14.07882,4.02252 8.04506,-10.05629 2.01125,-14.0788 24.13509,-8.04504 8.04505,-64.35462 24.13509,-12.06753 28.15763,-52.29274 L 665.50433,217.5732 647.403,165.28049 621.25662,135.11162 591.08776,112.98774 514.65991,96.897684 v -12.06755 l -76.4278,-18.101322 z m 185.4607,193.222473 c 3.05409,-0.19704 5.41957,0.5892 8.57194,0.5892 0,1.40135 5.60124,4.90637 7.00258,7.00826 0.70052,1.40106 3.50529,5.60319 4.90634,5.60319 0,3.50265 0.69883,14.71366 -0.70253,16.81524 -1.40107,2.10188 -10.50389,11.90892 -12.60577,11.90892 -1.40106,0 -7.7071,9.10281 -8.40764,10.50387 -1.40106,2.10186 -10.50954,9.1088 -10.50954,12.61144 -9.10717,0 -57.44832,-7.00355 -57.44832,-15.4102 h -1.3994 c 0,-0.70053 -4.90464,-4.20382 -6.30571,-4.20382 -0.70052,0 -7.70709,-9.80899 -8.40763,-10.50951 -0.70052,0 -0.69852,-2.10192 0.70254,-2.10192 v -2.1019 c 0.70052,0 12.60974,-3.5033 14.0108,-4.20382 3.50293,-1.40106 8.40827,-10.50419 12.61144,-12.60576 3.50295,-1.40138 9.80934,0.70049 12.61146,-2.10191 7.70642,-7.70612 32.22476,-8.40968 42.03246,-11.21208 1.22601,-0.35026 2.31898,-0.52352 3.33698,-0.5892 z m -278.39786,4.26613 c 4.9915,-0.17516 9.89517,0.87565 13.04771,4.02818 7.70641,7.70611 28.02629,-2.80006 35.73243,4.90634 3.50292,3.50265 15.4102,5.60386 15.4102,11.90892 0,4.20318 -2.80276,5.6055 -4.20382,8.40761 -5.60453,8.40664 -16.11177,11.20641 -25.91976,11.20641 -3.50295,-2e-5 -7.00625,4.90832 -8.40763,5.60886 -1.40106,0.70053 -9.10846,8.40595 -10.50952,9.80701 -2.10189,2.10188 -31.52693,-3.50696 -32.92799,-3.50696 -2.8021,-0.70054 -4.899,-3.50325 -6.30006,-4.20382 -4.20347,-2.1016 -2.80447,-5.60184 -4.90636,-9.10449 l 1.39942,2.10191 c 0,-10.50852 -39.92826,-20.31522 -16.80962,-28.02164 4.2032,-1.40105 11.20904,-6.30403 16.11274,-7.70509 3.50295,-0.70053 11.90526,-0.70085 14.70769,-2.10191 3.50278,-1.75146 8.58309,-3.15622 13.57457,-3.33133 z m 134.24446,34.85424 c 0,0 2.80641,2.10191 3.50694,2.10191 1.40134,0.70053 4.89901,3.50129 6.30007,3.50131 0,0.70054 2.10391,2.10189 2.80444,2.10189 0,2.10186 4.90265,4.20582 5.60319,4.90634 0.70052,0.70054 4.20379,5.60152 4.20379,7.00258 0.70054,0 4.90634,6.30774 4.90634,7.00825 2.10188,0 3.50162,7.00257 5.60321,7.00257 0,1.40107 2.10189,2.10592 2.10189,3.50698 1.40106,0 -10e-4,0.69684 1.39938,0.69684 0,0.70054 2.10192,2.80444 2.10192,2.80444 0,4.20347 3.50696,9.10683 3.50696,14.01081 -0.70053,0 -2.10189,0.70055 -2.10189,2.1019 -2.80213,0 -0.001,0.70254 -2.80444,0.70254 0,0.70052 -4.90637,3.50328 -4.90637,4.20382 h -2.10189 c 0,0 -2.79877,1.40138 -2.79877,2.1019 h -14.01083 c -0.70052,-1.40135 -0.70085,-1.40506 -2.1019,-1.40503 -0.70054,-2.10164 -0.70422,-0.69719 -1.40503,-2.79879 l -2.09627,-1.40503 h -2.10189 c -1.40135,-2.10188 -6.30579,-1.39941 -8.40761,-1.39941 0,0.70054 -2.10392,2.10392 -2.80444,2.80444 h -1.39939 l -2.80443,0.69688 h -2.79876 c -4.20347,4.20347 -15.41656,3.50694 -21.72161,3.50694 -1.40106,-2.10187 -5.60152,-5.6052 -7.00257,-6.30572 l -1.40503,-2.80444 h -2.10192 l -1.39938,-2.10188 c 0,-2.10189 1.40138,-4.20415 2.10192,-6.30573 h 1.39938 l 0.70248,-2.79877 c 0.70054,0 1.40138,-1.40505 2.10192,-1.40505 0,-1.40106 1.40339,-2.79876 2.80444,-2.79877 0.70082,-0.70083 3.5016,-4.20381 5.6032,-4.20381 0,-0.70052 1.40138,-2.80444 2.1019,-2.80444 0,-2.8021 9.10452,-8.40794 11.20641,-10.50952 0.70052,-0.70083 6.3057,-9.80334 6.3057,-10.50387 h 1.40504 l 1.39941,-1.40507 c 0,-2.80241 0.69685,0.003 0.69685,-2.79875 0.70052,0 1.40138,-1.40504 2.1019,-1.40504 0,-2.10162 2.10192,-2.10193 2.10192,-4.2038 h 1.40506 c 0.70052,-1.40106 1.39768,-1.39942 2.79876,-1.39942 z m -150.6178,65.15346 c 7.70642,1.40106 19.61334,21.71826 29.42105,24.52038 0,4.20345 16.1147,11.21039 16.81523,14.71333 11.90959,0 15.41386,8.40527 30.8261,3.50128 16.8136,-5.60452 21.01639,2.10026 32.22546,5.6032 0,13.31065 40.62974,-7.7058 43.43186,2.10191 6.30505,0 13.31062,0.69887 18.21463,1.39941 0,7.70611 43.43456,-0.69688 52.54202,-0.69688 18.21466,0 30.82744,-26.62225 45.53941,-26.62225 0,-4.20348 12.6081,-9.10818 15.4102,-8.40764 4e-5,11.20906 -22.4151,23.11827 -27.31909,32.22545 -5.60453,9.808 -17.51781,28.72316 -17.51781,36.4293 -3.50294,0 -19.614,-0.69917 -19.614,-3.50129 -1.40108,0 -11.90891,-3.50328 -11.90891,-4.20382 -28.02235,0 -69.35794,-8.40999 -95.97952,-13.31398 -11.20908,-2.10188 -22.41546,3.50696 -29.42105,3.50696 -10.50823,0 -30.12424,11.20607 -36.4293,9.1045 0,0 -16.11471,-9.80702 -16.81523,-9.80702 0,-2.1016 -1.3997,-14.71333 -3.5013,-14.71333 0,-0.70054 -0.69854,-4.20382 -1.39937,-4.20382 0,-2.1016 -2.80476,-14.70772 -4.90635,-14.70772 0,-1.40106 -2.80444,-4.90634 -2.80444,-7.00822 -2.10158,0 -7.00088,-9.10848 -8.40195,-10.50955 l -7.71079,-7.00258 c -2.8021,0 -5.60319,-4.90268 -5.60319,-7.70508 1.40106,0 2.80476,-0.70254 4.90634,-0.70254 z" />
  <path
     d="m 190.55168,411.8381 c 0,-30.27247 -34.9296,-60.54465 -58.21593,-72.18794 -43.079833,-20.95759 -116.431829,82.66659 -67.530492,107.11725 23.286315,11.6433 54.722832,16.30046 80.337862,29.10811 47.73699,23.28631 72.07017,68.93244 118.76056,91.98116 45.29079,22.35865 88.74539,48.74413 31.43654,82.6666 L 119.26993,754.74357 C 77.756496,746.44192 31.916612,775.97673 49.549068,816.94742 96.46863,925.96729 164.74839,826.03169 191.71574,808.8703 237.1243,778.59812 369.81047,652.91582 419.92228,690.11003 c 6.46604,4.79959 155.66993,140.40709 158.44333,144.21084 42.99253,58.97329 114.79552,25.48419 140.51585,-31.4728 0.60742,-55.61019 -75.96036,-40.08164 -89.97733,-49.32717 -40.705,-26.84843 -112.34352,-90.19024 -156.58773,-112.3122 -39.58675,-19.79353 83.83096,-81.50224 107.11727,-87.32402 44.24418,-12.80738 55.88719,-57.05157 102.46011,-57.05157 82.66659,0 58.21593,-122.25333 -2.32871,-122.25333 -18.62918,0 -55.88722,31.43651 -55.88722,47.73697 0,30.27246 -193.27692,115.26748 -221.22038,143.21123 -26.77938,26.77938 -188.61948,-147.86839 -215.39886,-160.67603 0,4.65743 6.98585,5.82178 3.49307,6.98615 z"
     style="fill:#000000;stroke:#1b1918;stroke-width:0.626561;stroke-linecap:butt;stroke-linejoin:miter;stroke-dasharray:none"
     id="path18" />
</svg>
